<svg xmlns="http://www.w3.org/2000/svg" xmlns:xlink="http://www.w3.org/1999/xlink" width="15.97" height="15.06" viewBox="0 0 15.97 15.06">
  <metadata><?xpacket begin="﻿" id="W5M0MpCehiHzreSzNTczkc9d"?>
<x:xmpmeta xmlns:x="adobe:ns:meta/" x:xmptk="Adobe XMP Core 5.6-c142 79.160924, 2017/07/13-01:06:39        ">
   <rdf:RDF xmlns:rdf="http://www.w3.org/1999/02/22-rdf-syntax-ns#">
      <rdf:Description rdf:about=""/>
   </rdf:RDF>
</x:xmpmeta>
                                                                                                    
                                                                                                    
                                                                                                    
                                                                                                    
                                                                                                    
                                                                                                    
                                                                                                    
                                                                                                    
                                                                                                    
                                                                                                    
                                                                                                    
                                                                                                    
                                                                                                    
                                                                                                    
                                                                                                    
                                                                                                    
                                                                                                    
                                                                                                    
                                                                                                    
                                                                                                    
                           
<?xpacket end="w"?></metadata>
<defs>
    <style>
      .cls-1 {
        fill-rule: evenodd;
        filter: url(#filter);
      }
    </style>
    <filter id="filter" x="1567" y="2551.97" width="15.97" height="15.06" filterUnits="userSpaceOnUse">
      <feFlood result="flood" flood-color="#6e774a"/>
      <feComposite result="composite" operator="in" in2="SourceGraphic"/>
      <feBlend result="blend" in2="SourceGraphic"/>
    </filter>
  </defs>
  <path id="_1" data-name="1" class="cls-1" d="M1582.29,2557.11l-4.4-.41a0.792,0.792,0,0,1-.64-0.46l-1.57-3.79a0.767,0.767,0,0,0-1.41,0l-1.56,3.79a0.763,0.763,0,0,1-.63.46l-4.41.41a0.75,0.75,0,0,0-.43,1.31l3.32,2.89a0.724,0.724,0,0,1,.24.73l-1,4.05a0.761,0.761,0,0,0,1.13.82l3.67-2.13a0.758,0.758,0,0,1,.77,0l3.68,2.13a0.753,0.753,0,0,0,1.12-.82l-0.98-4.05a0.705,0.705,0,0,1,.24-0.73l3.32-2.89A0.76,0.76,0,0,0,1582.29,2557.11Z" transform="translate(-1567 -2551.97)"/>
</svg>
